<svg width="411" height="412" viewBox="0 0 411 412" fill="none" xmlns="http://www.w3.org/2000/svg">
<path d="M7.98184 204.25L9.75013 195.75L193.75 13.7499L204.25 13.7499L217.75 13.7499L398.75 193.25L401.75 205.25V213.75L216.25 400.25L205.382 402.25L193.25 398.75L12.25 214.75L7.98184 204.25Z" fill="#B80000"/>
<path d="M184.75 15.7499L16.25 184.75C33.5367 175.831 27.2496 181.249 26.7497 187.749C26.3679 192.713 36.2497 196.249 36.2497 196.249L53.7496 222.249L73.2496 210.249L103.75 228.749L163.75 240.249L185.25 222.249L216.25 181.249L305.25 315.249C305.25 315.249 378.75 241.25 399.25 220.749C399.473 206.884 401.75 195.25 393.25 185.75L225.75 15.7499H184.75Z" fill="black"/>
<path fill-rule="evenodd" clip-rule="evenodd" d="M12.072 186.428C12.072 186.428 4.07178 194.822 4.07178 204.322C4.07178 215.822 12.072 223.322 12.072 223.322L183.822 395.822C183.822 395.822 195.177 405.322 206.572 405.322C217.967 405.322 228.204 395.822 228.204 395.822L398.572 225.086C398.572 225.086 406.065 216.237 406.072 205.322C406.079 194.4 398.572 186.428 398.572 186.428L231.204 18.822C231.204 18.822 221.572 7.32202 206.572 7.32202C191.572 7.32202 181.822 18.822 181.822 18.822L12.072 186.428ZM24.8092 187.69C24.8092 187.69 17.3457 195.522 17.3457 204.384C17.3457 215.113 24.8092 222.11 24.8092 222.11L185.037 383.037C185.037 383.037 195.63 391.899 206.26 391.899C216.891 391.899 226.441 383.037 226.441 383.037L385.379 223.755C385.379 223.755 392.37 215.5 392.376 205.317C392.382 195.128 385.379 187.69 385.379 187.69L229.24 31.3294C229.24 31.3294 220.254 20.6009 206.26 20.6009C192.267 20.6009 183.171 31.3294 183.171 31.3294L24.8092 187.69Z" fill="black"/>
<path d="M169.992 348.637C169.962 348.682 169.92 348.76 169.879 348.839L169.888 348.821C171.342 345.69 173.88 342.165 176.422 339.735C182.643 333.786 188.392 327.843 194.083 321.404C194.667 319.353 195.278 322.351 196.906 323.26C200.68 327.434 203.914 328.947 210.922 336.791C212.435 338.485 193.544 316.336 195.828 316.84C200.608 310.334 207.909 306.938 213.044 300.85C214.629 298.972 213.141 298.925 215.773 299.184C219.547 300.904 226.414 301.008 228.731 302.694C231.183 304.48 227.732 299.205 217.93 297.166C219.547 293.131 224.398 288.591 230.867 283.546C240.031 282.537 246.38 282.103 255.125 276.988C258.899 274.466 241.469 280.444 233.899 281.494C231.268 281.858 233.05 275.293 233.05 273.702C229.789 259.332 222.781 253.894 224.398 227.047C225.002 221.398 223.859 207.877 222.781 210.904C220.604 219.054 219.191 229.63 221.164 238.042C221.939 241.343 216.984 234.821 216.581 234.415C214.009 231.822 211.722 228.842 209.678 225.866C208.075 223.533 200.108 205.996 201.219 211.041C202.508 216.899 205.032 222.371 206.609 227.047C207.098 228.494 203.347 233.127 201.219 232.091C199.063 225.533 197.445 223.515 187.742 222.506C183.43 222.506 207.148 227.047 194.291 237.7C188.792 243.396 191.758 240.164 185.586 245.207C184.61 246.005 176.63 253.894 175.344 253.894C169.456 253.894 163.538 254.792 160.789 256.605C158.283 258.258 168.11 256.605 170.492 256.605C172.626 256.605 164.827 261.948 161.823 262.149C153.36 262.715 149.869 258.425 142.461 255.296C137.222 253.084 127.885 249.399 122.934 246.664C121.769 246.021 144.241 250.528 139.227 248.3C122.287 240.777 103.251 236.407 88.0155 226.038C87.4622 225.491 88.5546 221.498 86.9374 219.48C86.5648 220.069 86.8892 225.123 85.3202 224.315C80.3126 221.738 74.5389 218.471 76.6952 220.489C78.765 222.426 81.9597 223.596 83.703 225.533C84.4335 226.345 82.1133 231.738 81.0077 232.596C78.3123 232.596 70.7656 229.569 73.4609 225.029C75.1077 222.255 72.9455 226.049 70.2265 228.56C68.4954 230.158 66.3928 230.578 65.3749 230.578C63.9602 230.578 72.2118 221.812 69.6874 223.011C66.4531 224.524 63.4969 229.977 62.877 229.945C62.4176 229.921 60.4958 228.881 60.2148 228.468C65.3749 224.02 64.8359 219.984 63.7577 221.498C63.3227 222.23 60.2148 226.939 57.828 228.056C55.6718 229.064 54.5937 229.064 56.7499 227.047C59.4452 224.524 60.6543 221.452 63.7577 219.48C65.914 218.471 74.539 223.515 73.4609 221.498C73.4609 221.498 68.8066 216.601 65.3749 216.957C60.5233 217.462 53.4015 228.638 52.9764 227.047C51.2655 220.642 62.8009 211.443 66.9921 207.877C71.7329 203.844 82.0792 209.192 86.6764 210.913C87.9571 211.393 84.5469 208.674 83.1639 207.877C82.9517 207.755 88.0155 207.462 96.3244 211.041C106.998 216.659 112.118 218.718 129.523 224.524C139.172 225.796 148.93 228.56 160.789 235.622C162.474 236.626 156.959 233.258 157.555 231.587C159.172 227.047 162.945 223.011 162.945 223.011C165.102 219.984 174.505 224.271 183.43 222.002C186.904 221.749 168.696 218.471 163.484 219.984C158.671 219.984 173.807 207.413 177.222 203.841C178.201 202.818 181.616 197.462 182.651 196.52C184.721 194.635 185.01 193.459 186.664 191.23C188.181 189.186 193.019 184.288 193.672 181.904C194.355 179.411 192.055 189.498 192.055 190.221C191.209 192.581 191.122 198.161 191.516 196.52C198.65 187.472 196.552 173.663 203.375 164.998C214.695 156.422 204.992 160.458 199.237 164.494C195.573 164.494 202.836 162.622 202.836 156.927C202.836 154.746 202.018 150.78 201.104 148.855C200.794 148.204 193.097 155.594 192.594 155.918C191.005 156.94 186.963 158.179 183.969 156.422C182.77 153.992 184.322 151.031 182.891 148.855C182.254 147.887 180.696 148.061 179.493 148.061C178.642 148.061 179.405 146.897 179.493 146.333C179.745 144.704 183.219 142.802 181.812 142.802C180.057 142.802 176.674 142.424 176.674 140.784C176.674 139.857 176.697 137.069 176.674 136.142C176.65 135.21 173.324 137.984 172.648 136.244C171.968 134.493 172.19 131.193 173.187 129.686C173.727 127.668 173.187 122.119 168.875 120.101C166.29 120.101 169.057 107.762 168.875 105.976C167.258 103.959 162.8 108.747 160.25 103.877C159.236 101.941 157.555 99.9229 163.18 99.0409C167.006 99.0886 175.883 94.6448 175.883 90.3382C175.883 89.2866 165.186 98.6547 165.641 95.8872C165.894 94.3458 169.909 90.8169 171.031 89.8337C174.437 86.8498 179.903 83.8689 184.687 83.6655C192.476 83.3341 199.736 79.3475 207.394 79.2568C208.711 79.2412 210.03 79.2568 211.348 79.2568C214.923 79.2568 219.844 90.2664 221.164 92.8605C221.572 93.6627 223.263 101.494 223.859 101.434C225.154 101.305 223.393 91.8609 223.859 90.8426C228.538 97.9245 226.473 104.823 226.473 112.658C226.473 114.454 225.815 121.342 226.016 123.128C226.082 123.714 217.923 129.618 216.852 131.199C213.668 135.9 209.844 149.099 210.922 155.918C219.008 136.748 220.086 130.695 240.031 126.155C228.172 124.137 216.313 136.748 219.008 132.713C229.789 122.122 226.968 123.128 234.102 123.128C236.697 123.128 239.564 124.319 242.188 124.137C246.85 123.814 252.189 121.855 256.906 122.122C258.757 122.227 255.3 143.75 261.594 145.829C265.362 147.073 270.473 149.66 273.903 151.548C282.396 156.223 291.781 159.449 305.258 169.538C309.57 172.061 303.641 163.485 284.643 153.197C283.509 152.395 276.565 149.338 273.287 147.327C270.219 145.829 267.524 144.82 262.82 143.103C259.088 140.264 261.216 137.056 260.516 135.235C260.075 134.089 259.418 130.977 259.705 127.668C259.705 127.668 259.01 121.51 261.594 119.092C264.289 116.57 272.886 117.423 270.954 119.092C268.618 121.11 263.437 123.416 263.437 123.416C266.85 122.743 265.906 123.128 270.484 121.97C273.133 121.11 280.524 118.365 278.368 125.644C274.308 127.668 262.596 130.977 263.813 130.977C268.067 130.977 273.559 130.734 276.688 128.173C278.243 129.457 279.482 132.899 276.565 133.722C275.002 134.163 271.402 134.826 269.792 135.049C259.839 136.429 267.524 137.15 271.593 136.748C274.331 136.478 278.035 133.848 278.305 134.731C278.562 135.574 278.721 139.003 277.227 139.873C275.523 140.865 273.507 140.49 271.593 141.07C262.364 143.864 275.885 142.294 278.305 140.784C277.227 143.811 272.008 145.038 272.794 145.161C280.461 146.211 280.832 141.167 279.922 126.659L282.078 137.858C282.324 137.858 282.816 136.842 282.816 132.778C283.653 132.715 286.792 134.769 287.469 135.235C290.364 137.227 293.634 138.68 297.172 139.324C298.741 139.609 308.514 142.297 306.336 142.297C304.707 142.297 298.544 142.05 295.881 141.902C309.313 143.772 328.151 154.493 335.963 162.032C338.73 164.703 345.283 171.283 340.622 175.1C335.918 178.952 328.77 178.554 330.594 179.123C330.594 180.132 343.531 177.61 337.602 180.636C313.486 184.998 311.869 179.229 295.555 167.016C292.86 164.998 300.406 172.061 300.767 175.82C283.156 169.034 276.515 164.538 269.356 161.263C272.914 167.016 295.555 176.096 299.867 182.15C309.031 195.77 313.677 200.6 316.578 211.913C317.664 216.146 307.291 201.785 305.258 200.477C296.633 194.928 323.612 225.73 322.508 229.569C322.264 230.419 317.746 250.372 319.813 248.3C320.055 247.555 324.197 237.832 324.337 238.042C326.985 242.007 343.041 264.424 341.75 268.25C330.39 271.895 315.25 270.935 299.25 270.935C294.741 271.03 289.14 269.465 285.313 270.935C282.623 271.967 287.25 273.702 319.813 273.702C322.67 273.335 329.75 273.702 329.75 273.702C329.75 273.702 339.054 272.703 341.75 273.702C293.773 321.741 291.129 317.904 258.785 356.233C252.44 355.983 260.906 336.558 261.055 336.01C262.03 331.098 263.75 328.443 265.367 317.345C264.289 316.336 262.133 323.903 258.785 334.666C258.075 337.084 251.765 353.975 248.656 351.648C244.883 347.612 231.945 342.063 233.563 344.081C234.408 344.838 242.319 350.512 242.949 351.397C245.939 355.595 230.073 356.233 228.953 356.233C215.665 356.233 202.493 356.019 189.228 355.354C171.05 354.443 170.492 352.152 171.57 351.144C173.889 348.974 191.83 333.559 186.318 336.791C180.988 340.71 173.712 343.167 169.992 348.637Z" fill="white"/>
<path d="M56.0053 217.911C56.6084 216.056 57.326 213.779 58.7735 212.32C60.8569 210.22 63.9039 208.29 66.5781 206.888C69.5018 205.356 66.4727 200.664 64.7564 198.599C60.553 193.541 55.0507 189.212 48.0429 186.185C41.7386 184.168 26.7324 186.105 30.7929 185.177C37.2616 183.698 49.121 177.105 66.5781 198.257C63.6759 189.177 57.6408 186.3 56.6681 185.646C51.9182 182.455 45.4154 180.636 39.4179 180.636C32.6826 180.636 26.6385 184.754 23.7851 190.476C20.5803 196.903 22.6593 209.176 27.5586 214.94C34.231 222.789 53.1427 232.91 56.0053 217.911Z" fill="white"/>
<path d="M44.891 191.23C39.5003 192.239 34.1093 196.275 41.1172 194.257C50.8204 190.726 55.1333 195.377 55.1333 194.257C53.5158 191.734 48.3017 190.592 44.891 191.23Z" fill="black"/>
<path d="M39.2523 216.873C28.5597 206.753 27.6546 195.151 39.4205 187.202C43.2874 185.062 28.3075 189.607 27.6546 201.204C27.115 210.79 42.3864 222.27 39.2523 216.873Z" fill="#B80000"/>
<circle cx="75.25" cy="178.25" r="5" fill="white"/>
<path d="M65.25 357.749C65.25 357.749 123.75 333.249 204.75 333.249C285.75 333.249 346.25 359.749 346.25 359.749L322.75 375.749L326.25 408.749C326.25 408.749 263.25 386.749 204.75 386.749C146.25 386.749 85.75 411.249 85.75 411.249L88.75 375.749L65.25 357.749Z" fill="black"/>
<path d="M174.366 353.755L168.819 371.723H162.929L171.288 348.973H175.022L174.366 353.755ZM178.96 371.723L173.397 353.755L172.679 348.973H176.46L184.866 371.723H178.96ZM178.741 363.239V367.473H167.069V363.239H178.741Z" fill="white"/>
<path d="M198.257 365.676C198.257 365.322 198.205 365.005 198.101 364.723C197.996 364.432 197.804 364.161 197.522 363.911C197.241 363.661 196.835 363.411 196.304 363.161C195.783 362.9 195.095 362.63 194.241 362.348C193.241 362.015 192.278 361.64 191.351 361.223C190.424 360.796 189.595 360.301 188.866 359.739C188.137 359.166 187.559 358.499 187.132 357.739C186.705 356.968 186.491 356.072 186.491 355.051C186.491 354.072 186.71 353.192 187.147 352.411C187.585 351.619 188.194 350.947 188.976 350.395C189.767 349.833 190.694 349.406 191.757 349.114C192.819 348.812 193.981 348.661 195.241 348.661C196.908 348.661 198.377 348.952 199.647 349.536C200.929 350.109 201.929 350.926 202.647 351.989C203.377 353.041 203.741 354.286 203.741 355.723H198.288C198.288 355.15 198.168 354.645 197.929 354.208C197.7 353.77 197.351 353.426 196.882 353.176C196.413 352.926 195.825 352.801 195.116 352.801C194.429 352.801 193.851 352.906 193.382 353.114C192.913 353.322 192.559 353.603 192.319 353.958C192.08 354.301 191.96 354.682 191.96 355.098C191.96 355.442 192.054 355.755 192.241 356.036C192.439 356.307 192.715 356.562 193.069 356.801C193.434 357.041 193.871 357.27 194.382 357.489C194.903 357.708 195.486 357.921 196.132 358.13C197.34 358.515 198.413 358.947 199.351 359.426C200.299 359.895 201.095 360.432 201.741 361.036C202.397 361.63 202.892 362.307 203.226 363.067C203.569 363.827 203.741 364.687 203.741 365.645C203.741 366.666 203.543 367.572 203.147 368.364C202.752 369.156 202.184 369.827 201.444 370.38C200.705 370.921 199.819 371.333 198.788 371.614C197.757 371.895 196.606 372.036 195.335 372.036C194.168 372.036 193.017 371.89 191.882 371.598C190.757 371.296 189.736 370.838 188.819 370.223C187.903 369.598 187.168 368.801 186.616 367.833C186.075 366.853 185.804 365.692 185.804 364.348H191.304C191.304 365.015 191.392 365.577 191.569 366.036C191.746 366.494 192.007 366.864 192.351 367.145C192.694 367.416 193.116 367.614 193.616 367.739C194.116 367.853 194.689 367.911 195.335 367.911C196.033 367.911 196.595 367.812 197.022 367.614C197.45 367.406 197.762 367.135 197.96 366.801C198.158 366.458 198.257 366.083 198.257 365.676Z" fill="white"/>
<path d="M217.585 348.973V371.723H212.101V348.973H217.585ZM224.429 348.973V353.208H205.413V348.973H224.429Z" fill="white"/>
<path d="M238.022 348.973V371.723H232.538V348.973H238.022ZM244.866 348.973V353.208H225.851V348.973H244.866Z" fill="white"/>
<path d="M65.25 49.7494C65.25 49.7494 123.75 25.2495 204.75 25.2495C285.75 25.2495 346.25 51.7494 346.25 51.7494L322.75 67.7495L326.25 100.749C326.25 100.749 263.25 78.7495 204.75 78.7495C146.25 78.7495 85.75 103.249 85.75 103.249L88.75 67.7495L65.25 49.7494Z" fill="black"/>
<path d="M77.25 51.0379C77.25 51.0379 130.754 31.2495 204.835 31.2495C278.917 31.2495 334.25 52.6533 334.25 52.6533L315.958 66.7495L319.75 92.2495C319.75 92.2495 258.339 74.461 204.835 74.461C151.332 74.461 92.25 95.2495 92.25 95.2495L95.25 65.5764L77.25 51.0379Z" fill="#B80000"/>
<path d="M285.153 71.0721L284.133 75.1657L272.974 72.386L273.994 68.2924L285.153 71.0721ZM280.368 50.7827L274.87 72.8581L269.548 71.5325L275.047 49.4571L280.368 50.7827Z" fill="white"/>
<path d="M271.1 59.0837L270.955 59.9942C270.682 61.7122 270.195 63.2169 269.494 64.5083C268.805 65.791 267.946 66.8464 266.918 67.6744C265.892 68.4921 264.741 69.0634 263.466 69.388C262.192 69.7024 260.835 69.7452 259.395 69.5162C257.945 69.2856 256.658 68.8226 255.534 68.1272C254.422 67.4232 253.5 66.5224 252.768 65.4251C252.047 64.319 251.553 63.0486 251.285 61.6138C251.029 60.1703 251.038 58.5896 251.311 56.8716L251.456 55.9611C251.729 54.2431 252.211 52.7376 252.902 51.4446C253.603 50.1532 254.461 49.0979 255.478 48.2785C256.506 47.4505 257.656 46.8792 258.93 46.5649C260.215 46.2418 261.583 46.1956 263.034 46.4261C264.474 46.6551 265.75 47.1216 266.862 47.8257C267.985 48.5211 268.907 49.4218 269.628 50.5278C270.35 51.6236 270.845 52.894 271.111 54.3391C271.377 55.7842 271.373 57.3657 271.1 59.0837ZM265.462 59.1209L265.611 58.1796C265.788 57.0686 265.846 56.0757 265.784 55.2011C265.735 54.3178 265.571 53.5587 265.292 52.9237C265.013 52.2887 264.624 51.7839 264.125 51.4091C263.637 51.0258 263.049 50.7793 262.359 50.6697C261.639 50.5553 260.988 50.6047 260.406 50.818C259.825 51.021 259.309 51.3819 258.857 51.9008C258.405 52.4197 258.019 53.0913 257.698 53.9157C257.389 54.7315 257.146 55.6949 256.97 56.806L256.82 57.7473C256.645 58.8481 256.577 59.8393 256.616 60.7209C256.668 61.5939 256.827 62.3523 257.093 62.9959C257.37 63.6411 257.753 64.1555 258.24 64.5388C258.738 64.9238 259.347 65.1736 260.067 65.288C260.757 65.3976 261.392 65.3457 261.975 65.1324C262.557 64.9191 263.075 64.5479 263.528 64.0188C263.992 63.4912 264.383 62.8204 264.702 62.0063C265.034 61.1835 265.287 60.2217 265.462 59.1209Z" fill="white"/>
<path d="M246.652 53.469L246.102 57.6518L234.53 56.1305L235.08 51.9477L246.652 53.469ZM238.069 43.2318L235.104 65.7877L229.667 65.0729L232.632 42.517L238.069 43.2318ZM251.485 44.9954L248.52 67.5514L243.098 66.8386L246.063 44.2827L251.485 44.9954Z" fill="white"/>
<path d="M220.54 56.3398L214.895 55.9752L215.168 51.7496L220.813 52.1142C221.582 52.1639 222.214 52.0743 222.709 51.8453C223.204 51.6163 223.575 51.2802 223.823 50.8369C224.082 50.3839 224.23 49.8663 224.268 49.2842C224.308 48.6605 224.231 48.0762 224.037 47.5313C223.853 46.987 223.532 46.5383 223.075 46.1852C222.618 45.8217 222.005 45.6151 221.236 45.5654L217.649 45.3337L216.456 63.8108L210.983 63.4573L212.449 40.7546L221.509 41.3398C223.328 41.4573 224.871 41.891 226.138 42.6409C227.415 43.3915 228.369 44.3717 229.001 45.5816C229.633 46.7811 229.901 48.1241 229.805 49.6106C229.711 51.0763 229.275 52.3321 228.497 53.3779C227.72 54.4237 226.651 55.2106 225.291 55.7386C223.943 56.2569 222.359 56.4573 220.54 56.3398Z" fill="white"/>
<path d="M185.996 41.6371L190.462 41.4787L196.098 57.1168L200.612 41.1186L205.078 40.9602L198.154 63.9701L194.532 64.0986L185.996 41.6371ZM183.279 41.7334L187.901 41.5695L189.378 58.9656L189.566 64.2747L184.085 64.4691L183.279 41.7334ZM203.173 41.0278L207.81 40.8633L208.617 63.599L203.12 63.794L202.932 58.4848L203.173 41.0278Z" fill="white"/>
<path d="M171.46 47.5891L167.876 66.0499L162.019 66.6828L167.886 43.1663L171.599 42.765L171.46 47.5891ZM177.958 64.9603L170.497 47.6932L169.268 43.0169L173.028 42.6106L183.83 64.3256L177.958 64.9603ZM176.829 56.5485L177.284 60.7584L165.679 62.0125L165.224 57.8026L176.829 56.5485Z" fill="white"/>
<path d="M157.374 53.7013L158.054 57.8648L146.535 59.747L145.854 55.5835L157.374 53.7013ZM146.202 46.3756L149.871 68.8279L144.458 69.7123L140.79 47.2601L146.202 46.3756ZM159.556 44.1936L163.225 66.6458L157.828 67.5277L154.159 45.0755L159.556 44.1936Z" fill="white"/>
<path d="M134.93 63.3419L140.254 62.0912C140.545 63.6492 140.449 65.1057 139.965 66.4607C139.48 67.8157 138.641 68.9812 137.448 69.9572C136.261 70.9206 134.756 71.6168 132.93 72.0456C131.45 72.3934 130.068 72.4559 128.785 72.233C127.513 72.0077 126.361 71.5239 125.331 70.7815C124.31 70.0368 123.431 69.0502 122.693 67.8219C121.965 66.5911 121.406 65.1443 121.015 63.4812L120.733 62.2795C120.342 60.6165 120.209 59.0695 120.333 57.6387C120.465 56.1953 120.826 54.9118 121.419 53.7883C122.018 52.6523 122.833 51.7012 123.862 50.9351C124.891 50.169 126.105 49.6216 127.505 49.2928C129.432 48.8402 131.14 48.8026 132.631 49.18C134.121 49.5575 135.373 50.2638 136.387 51.299C137.398 52.3241 138.149 53.5868 138.641 55.087L133.317 56.3378C133.101 55.511 132.796 54.8497 132.401 54.3539C132.004 53.848 131.489 53.5198 130.854 53.3692C130.219 53.2187 129.431 53.2542 128.488 53.4758C127.828 53.6307 127.284 53.8869 126.854 54.2447C126.425 54.6024 126.11 55.083 125.909 55.6866C125.709 56.2901 125.626 57.0318 125.662 57.9116C125.705 58.7788 125.865 59.8006 126.141 60.9769L126.43 62.209C126.707 63.3853 127.014 64.3726 127.351 65.1707C127.688 65.9689 128.076 66.5947 128.514 67.0482C128.952 67.5016 129.45 67.7968 130.006 67.9335C130.57 68.0578 131.218 68.0342 131.948 67.8626C132.759 67.672 133.414 67.3845 133.912 66.9999C134.408 66.6052 134.746 66.1085 134.926 65.5097C135.104 64.9008 135.105 64.1782 134.93 63.3419Z" fill="white"/>
</svg>
